<svg width="10" height="10" viewBox="0 0 10 10" fill="none" xmlns="http://www.w3.org/2000/svg">
<path fill-rule="evenodd" clip-rule="evenodd" d="M0.528606 0.528514C0.788955 0.268165 1.21107 0.268165 1.47141 0.528514L5.00001 4.05711L8.52861 0.528514C8.78896 0.268165 9.21107 0.268165 9.47141 0.528514C9.73176 0.788864 9.73176 1.21097 9.47141 1.47132L5.94282 4.99992L9.47141 8.52851C9.73176 8.78886 9.73176 9.21097 9.47141 9.47132C9.21107 9.73167 8.78896 9.73167 8.52861 9.47132L5.00001 5.94273L1.47141 9.47132C1.21107 9.73167 0.788955 9.73167 0.528606 9.47132C0.268256 9.21097 0.268256 8.78886 0.528606 8.52851L4.0572 4.99992L0.528606 1.47132C0.268256 1.21097 0.268256 0.788864 0.528606 0.528514Z" fill="#FCFCFD"/>
</svg>
